<svg xmlns="http://www.w3.org/2000/svg" viewBox="0 0 26.79 16.97"><defs><style>.cls-1{fill:#f8f3e9;}</style></defs><g id="Capa_2" data-name="Capa 2"><g id="Capa_1-2" data-name="Capa 1"><path class="cls-1" d="M20.8,3H17.61c-.18,0-.24,0-.23-.23q0-.81,0-1.62c0-.15,0-.2.2-.2H24c.16,0,.21,0,.2.2,0,.55,0,1.1,0,1.64,0,.19-.07.21-.22.21Z"/><path class="cls-1" d="M13.47,9.29A2.6,2.6,0,0,0,12,7.8a3.76,3.76,0,0,0-1-.22,2.94,2.94,0,0,0,1.89-1.22,4.51,4.51,0,0,0-.35-4.73A4.37,4.37,0,0,0,9,0C6,0,3,0,0,0V16.59l.18,0H8.63a6.5,6.5,0,0,0,2.1-.33,4.24,4.24,0,0,0,2.8-2.48A5.92,5.92,0,0,0,13.47,9.29ZM3.81,3.16C3.81,3,3.87,3,4,3c1.44,0,2.88,0,4.32,0A1.3,1.3,0,0,1,9.76,4.09a3.34,3.34,0,0,1-.12,1.77,1.1,1.1,0,0,1-1.11.79H4c-.16,0-.22,0-.22-.21C3.82,5.35,3.82,4.25,3.81,3.16Zm6.45,9.27a1.67,1.67,0,0,1-1.69,1.22c-1.54,0-3.07,0-4.61,0-.14,0-.15-.06-.15-.17,0-1.37,0-2.74,0-4.11,0-.17.08-.17.2-.17H8.38a1.79,1.79,0,0,1,1.95,1.61A3.22,3.22,0,0,1,10.26,12.43Z"/><path class="cls-1" d="M26.14,7.25a4.63,4.63,0,0,0-2.71-2.6,7.4,7.4,0,0,0-4.85-.05,5,5,0,0,0-2.9,2.3,7.32,7.32,0,0,0-.75,6.15,5.14,5.14,0,0,0,3.18,3.43,8.58,8.58,0,0,0,3.79.45,6.42,6.42,0,0,0,2.85-.85,3.79,3.79,0,0,0,1.89-3.39c0-.12,0-.15-.15-.14H23.88c-.12,0-.16,0-.18.16A1.57,1.57,0,0,1,22.8,14a3.84,3.84,0,0,1-2.29.32,2.54,2.54,0,0,1-2.36-2.62c0-.19,0-.23.22-.23h4.06c1.33,0,2.66,0,4,0,.26,0,.34-.07.35-.32A8.57,8.57,0,0,0,26.14,7.25Zm-2.73,2H18.1a3.12,3.12,0,0,1,1.62-2.28,2.84,2.84,0,0,1,3.16.45,2.79,2.79,0,0,1,.67,1.66C23.56,9.15,23.56,9.22,23.41,9.22Z"/></g></g></svg>