<svg xmlns="http://www.w3.org/2000/svg" viewBox="0 0 42.04 26.63"><defs><style>.cls-1{fill:#98bae7;}</style></defs><g id="Capa_2" data-name="Capa 2"><g id="Capa_1-2" data-name="Capa 1"><path class="cls-1" d="M32.64,4.76h-5c-.28,0-.37-.06-.37-.36,0-.85,0-1.69,0-2.54,0-.25.07-.33.33-.33,3.37,0,6.75,0,10.12,0,.25,0,.33.06.32.32,0,.86,0,1.72,0,2.58,0,.3-.1.33-.35.33Z"/><path class="cls-1" d="M21.14,14.59a4.13,4.13,0,0,0-2.34-2.35,6.37,6.37,0,0,0-1.63-.34,4.55,4.55,0,0,0,3-1.92,7.08,7.08,0,0,0-.54-7.42A6.85,6.85,0,0,0,14.08,0C9.39,0,4.69,0,0,0V26l.28,0H13.54a10.06,10.06,0,0,0,3.31-.53,6.65,6.65,0,0,0,4.39-3.88A9.26,9.26,0,0,0,21.14,14.59ZM6,5c0-.28.1-.33.35-.33,2.26,0,4.52,0,6.77,0a2,2,0,0,1,2.22,1.79,5.4,5.4,0,0,1-.19,2.79,1.72,1.72,0,0,1-1.75,1.23c-1.19,0-2.38,0-3.57,0H6.32c-.25,0-.34,0-.34-.32C6,8.4,6,6.68,6,5ZM16.11,19.51a2.65,2.65,0,0,1-2.67,1.91c-2.41,0-4.81,0-7.22,0-.22,0-.24-.09-.24-.27Q6,18,6,14.74c0-.27.12-.28.32-.28h6.85A2.81,2.81,0,0,1,16.21,17,5.13,5.13,0,0,1,16.11,19.51Z"/><path class="cls-1" d="M41,11.37A7.22,7.22,0,0,0,36.76,7.3a11.65,11.65,0,0,0-7.6-.09,8,8,0,0,0-4.56,3.61,11.53,11.53,0,0,0-1.17,9.66,8.09,8.09,0,0,0,5,5.39,13.59,13.59,0,0,0,5.93.7,9.93,9.93,0,0,0,4.47-1.33,6,6,0,0,0,3-5.32c0-.19-.06-.23-.23-.23H37.47c-.19,0-.25.06-.27.25a2.47,2.47,0,0,1-1.42,2,6,6,0,0,1-3.6.51,4,4,0,0,1-3.7-4.12c0-.3.06-.36.35-.36,2.12,0,4.24,0,6.36,0s4.19,0,6.28,0c.41,0,.54-.11.55-.51A13.36,13.36,0,0,0,41,11.37Zm-4.28,3.1H28.4A4.92,4.92,0,0,1,31,10.89a4.45,4.45,0,0,1,4.95.7A4.32,4.32,0,0,1,37,14.2C37,14.36,37,14.47,36.74,14.47Z"/></g></g></svg>