<svg xmlns="http://www.w3.org/2000/svg" viewBox="0 0 263.03 95.3"><defs><style>.cls-1{fill:none;}.cls-1,.cls-2{stroke:#000;stroke-miterlimit:10;}.cls-2{fill:#f8f3e9;}</style></defs><g id="Capa_2" data-name="Capa 2"><g id="Capa_1-2" data-name="Capa 1"><rect class="cls-1" x="5.33" y="5.33" width="252.38" height="84.65"/><rect class="cls-2" x="1.16" y="0.5" width="9.65" height="9.65"/><rect class="cls-2" x="252.88" y="0.5" width="9.65" height="9.65"/><rect class="cls-2" x="0.5" y="85.15" width="9.65" height="9.65"/><rect class="cls-2" x="252.88" y="85.15" width="9.65" height="9.65"/><path d="M28.39,32.61c-3.8,0-5.69-2.09-5.69-6.29a6.76,6.76,0,0,1,1.43-4.62,5.12,5.12,0,0,1,4.05-1.64,5.68,5.68,0,0,1,2.2.4,2.8,2.8,0,0,1,1.37,1.14l-1.27,1.27a2.69,2.69,0,0,0-1-.91,2.74,2.74,0,0,0-1.29-.32,3.27,3.27,0,0,0-2.66,1.2,5.15,5.15,0,0,0-1,3.4q0,4.79,4.14,4.79a6.31,6.31,0,0,0,2.46-.51L31.53,32A8.5,8.5,0,0,1,28.39,32.61Z"/><path d="M37.43,32.61a3.66,3.66,0,0,1-2.94-1.23,5.25,5.25,0,0,1-1.05-3.49,5.24,5.24,0,0,1,1.05-3.5,3.66,3.66,0,0,1,2.94-1.23,3.66,3.66,0,0,1,3,1.23,5.3,5.3,0,0,1,1,3.5,5.3,5.3,0,0,1-1,3.49A3.66,3.66,0,0,1,37.43,32.61Zm0-1.63A1.76,1.76,0,0,0,39,30.17a4,4,0,0,0,.55-2.28A4,4,0,0,0,39,25.6a1.89,1.89,0,0,0-3.1,0,4,4,0,0,0-.55,2.29,4,4,0,0,0,.55,2.28A1.76,1.76,0,0,0,37.43,31Z"/><path d="M43.28,32.44v-1.6h6.08v1.6Zm.34-7.51v-1.6h3l.18,1.6Zm1.68,7.51V23.33h1.48l.35,2.61v6.5Zm1.83-3.92-.54-2.85h.71c.1-1.67.94-2.51,2.51-2.51a2.46,2.46,0,0,1,2,.81,4.26,4.26,0,0,1,.63,2.61h-1.8a2.66,2.66,0,0,0-.3-1.44,1.08,1.08,0,0,0-1-.43,1.87,1.87,0,0,0-1.73,1A5.71,5.71,0,0,0,47.13,28.52Z"/><path d="M54.35,36.4V23.33H56l.17,1.93V36.4Zm4.41-3.79a2.75,2.75,0,0,1-1.69-.48,1.81,1.81,0,0,1-.73-1.34h-.79l.62-2.59a3.5,3.5,0,0,0,.56,2.14A2.17,2.17,0,0,0,60,30.29,4,4,0,0,0,60.59,28,4.29,4.29,0,0,0,60,25.53a2.14,2.14,0,0,0-3.29-.09,3.48,3.48,0,0,0-.56,2.14L55.55,25h.71A1.92,1.92,0,0,1,57,23.64a2.83,2.83,0,0,1,1.72-.48,3.21,3.21,0,0,1,2.72,1.22A5.92,5.92,0,0,1,62.4,28a5.59,5.59,0,0,1-.92,3.47A3.26,3.26,0,0,1,58.76,32.61Z"/><path d="M68.38,32.61a3.66,3.66,0,0,1-2.94-1.23,5.25,5.25,0,0,1-1-3.49,5.24,5.24,0,0,1,1-3.5,4.13,4.13,0,0,1,5.88,0,5.24,5.24,0,0,1,1.05,3.5,5.25,5.25,0,0,1-1.05,3.49A3.63,3.63,0,0,1,68.38,32.61Zm0-1.63a1.76,1.76,0,0,0,1.55-.81,4.08,4.08,0,0,0,.55-2.28,4.05,4.05,0,0,0-.55-2.29,1.89,1.89,0,0,0-3.1,0,4,4,0,0,0-.55,2.29,4,4,0,0,0,.55,2.28A1.76,1.76,0,0,0,68.38,31Z"/><path d="M74.22,32.44v-1.6h6.09v1.6Zm.35-7.51v-1.6h3l.17,1.6Zm1.68,7.51V23.33h1.48l.35,2.61v6.5Zm1.83-3.92-.54-2.85h.71c.1-1.67.94-2.51,2.51-2.51a2.43,2.43,0,0,1,2,.81,4.19,4.19,0,0,1,.64,2.61H81.63a2.68,2.68,0,0,0-.29-1.44,1.08,1.08,0,0,0-1-.43,1.87,1.87,0,0,0-1.73,1A5.71,5.71,0,0,0,78.08,28.52Z"/><path d="M87.67,32.61a3.23,3.23,0,0,1-2.21-.68A2.47,2.47,0,0,1,84.68,30a2.55,2.55,0,0,1,1.08-2.21,5.12,5.12,0,0,1,3-.78,10.35,10.35,0,0,1,1.46.1,5.55,5.55,0,0,1,1.14.3L91,28.63a5.57,5.57,0,0,0-1.12-.15c-.37,0-.75,0-1.13,0-1.58,0-2.37.49-2.37,1.45a1.11,1.11,0,0,0,.41.93,1.83,1.83,0,0,0,1.15.32,3,3,0,0,0,1.42-.29,2,2,0,0,0,.86-.75,1.71,1.71,0,0,0,.28-.93v-1l.54,2.34h-.72l.29-.28a2.21,2.21,0,0,1-.37,1.32,2.12,2.12,0,0,1-1,.79A4.11,4.11,0,0,1,87.67,32.61Zm3.21-.08-.12-2.7-.24-.76V26.72a1.48,1.48,0,0,0-.64-1.34,3.63,3.63,0,0,0-1.9-.46l-2.18-.06L86,23.24l1.84,0a5.15,5.15,0,0,1,3.35,1A3.38,3.38,0,0,1,92.26,27v3.8l1.55.19v1.46Z"/><path d="M100.2,32.61a4.93,4.93,0,0,1-3.59-1.22,4.66,4.66,0,0,1-1.27-3.52,4.77,4.77,0,0,1,1.2-3.47A4.53,4.53,0,0,1,100,23.16a4.93,4.93,0,0,1,2.29.49,2.91,2.91,0,0,1,1.35,1.4l-1.4,1.06a2.7,2.7,0,0,0-1-1,2.84,2.84,0,0,0-3.32.43,3.19,3.19,0,0,0-.71,2.21A3.18,3.18,0,0,0,98,30.16a3.26,3.26,0,0,0,2.39.82c.43,0,.85,0,1.27-.06s.84-.09,1.24-.16l.21,1.6a9.87,9.87,0,0,1-1.46.2C101.17,32.6,100.68,32.61,100.2,32.61Z"/><path d="M105.86,32.44v-1.6h3.65v1.6Zm.52-7.51v-1.6h4.78v1.6Zm3.8-3a1.28,1.28,0,1,1,.91-2.18,1.28,1.28,0,0,1,0,1.8A1.24,1.24,0,0,1,110.18,21.89Zm-.85,10.55V23.85h1.83v8.59Zm1.65,0v-1.6h3v1.6Z"/><path d="M120,32.61A3.66,3.66,0,0,1,117,31.38a5.25,5.25,0,0,1-1-3.49,5.24,5.24,0,0,1,1-3.5,4.13,4.13,0,0,1,5.88,0,5.24,5.24,0,0,1,1,3.5,5.25,5.25,0,0,1-1,3.49A3.63,3.63,0,0,1,120,32.61ZM120,31a1.76,1.76,0,0,0,1.55-.81,4,4,0,0,0,.55-2.28,4,4,0,0,0-.55-2.29,1.89,1.89,0,0,0-3.1,0,4,4,0,0,0-.55,2.29,4,4,0,0,0,.55,2.28A1.76,1.76,0,0,0,120,31Zm-.87-9.27,1.46-3.26h1.83l-1.64,3.26Z"/><path d="M126.56,32.44V23.33h1.65l.17,1.93v7.18Zm5.61,0V26.51a1.79,1.79,0,0,0-.43-1.27,1.6,1.6,0,0,0-1.21-.45c-1.43,0-2.15.84-2.15,2.53L127.85,25h.71a1.8,1.8,0,0,1,.67-1.37,2.81,2.81,0,0,1,1.73-.45,2.84,2.84,0,0,1,2.24.88,3.52,3.52,0,0,1,.79,2.47v5.93Z"/><path d="M150.87,32.61q-3.92,0-3.92-4.09V20.24h1.79v8.28a2.77,2.77,0,0,0,.53,1.84,2,2,0,0,0,1.64.62q2.16,0,2.16-2.46V20.24h1.79v8.28a4.21,4.21,0,0,1-1,3.07A4,4,0,0,1,150.87,32.61Z"/><path d="M157.51,32.44V23.33h1.65l.17,1.93v7.18Zm5.61,0V26.51a1.79,1.79,0,0,0-.43-1.27,1.6,1.6,0,0,0-1.21-.45c-1.43,0-2.15.84-2.15,2.53L158.8,25h.71a1.8,1.8,0,0,1,.67-1.37,2.81,2.81,0,0,1,1.73-.45,2.84,2.84,0,0,1,2.24.88,3.52,3.52,0,0,1,.79,2.47v5.93Z"/><path d="M167.76,32.44v-1.6h3.64v1.6Zm.51-7.51v-1.6h4.78v1.6Zm3.81-3a1.28,1.28,0,1,1,.91-2.18,1.3,1.3,0,0,1,0,1.8A1.24,1.24,0,0,1,172.08,21.89Zm-.85,10.55V23.85h1.82v8.59Zm1.65,0v-1.6h3v1.6Z"/><path d="M177.28,26.94v-1.6h8.43v1.6Zm2.88,5.5V24.1c0-3.15,1.43-4.73,4.31-4.73a9.69,9.69,0,0,1,1.89.18l-.19,1.58c-.36-.05-.68-.08-.95-.1l-.8,0c-1.63,0-2.44,1-2.44,3v8.42Z"/><path d="M188.39,32.44v-1.6H192v1.6Zm.52-7.51v-1.6h4.78v1.6Zm3.8-3a1.21,1.21,0,0,1-.89-.38,1.26,1.26,0,0,1,0-1.8,1.2,1.2,0,0,1,.89-.37,1.23,1.23,0,0,1,.91.37,1.28,1.28,0,0,1,0,1.8A1.24,1.24,0,0,1,192.71,21.89Zm-.85,10.55V23.85h1.83v8.59Zm1.65,0v-1.6h3v1.6Z"/><path d="M203.37,32.61a4.94,4.94,0,0,1-3.6-1.22,4.66,4.66,0,0,1-1.27-3.52,4.77,4.77,0,0,1,1.2-3.47,4.54,4.54,0,0,1,3.43-1.24,4.92,4.92,0,0,1,2.28.49,2.91,2.91,0,0,1,1.35,1.4l-1.4,1.06a2.7,2.7,0,0,0-1-1,2.84,2.84,0,0,0-3.32.43,3.19,3.19,0,0,0-.71,2.21,3.18,3.18,0,0,0,.84,2.38,3.27,3.27,0,0,0,2.39.82c.43,0,.85,0,1.27-.06s.84-.09,1.24-.16l.21,1.6a9.87,9.87,0,0,1-1.46.2C204.33,32.6,203.84,32.61,203.37,32.61Z"/><path d="M211.47,32.61a3.21,3.21,0,0,1-2.21-.68,2.44,2.44,0,0,1-.79-1.95,2.55,2.55,0,0,1,1.08-2.21,5.15,5.15,0,0,1,3-.78,10.58,10.58,0,0,1,1.46.1,5.91,5.91,0,0,1,1.14.3l-.38,1.24a5.66,5.66,0,0,0-1.13-.15c-.37,0-.74,0-1.13,0-1.58,0-2.37.49-2.37,1.45a1.14,1.14,0,0,0,.41.93,1.86,1.86,0,0,0,1.16.32,3,3,0,0,0,1.42-.29,2.05,2.05,0,0,0,.86-.75,1.8,1.8,0,0,0,.28-.93v-1l.53,2.34h-.72l.29-.28a2.28,2.28,0,0,1-.36,1.32,2.22,2.22,0,0,1-1,.79A4.11,4.11,0,0,1,211.47,32.61Zm3.21-.08-.12-2.7-.24-.76V26.72a1.48,1.48,0,0,0-.64-1.34,3.67,3.67,0,0,0-1.91-.46l-2.18-.06.17-1.62,1.84,0a5.16,5.16,0,0,1,3.36,1A3.4,3.4,0,0,1,216.05,27v3.8l1.55.19v1.46Z"/><path d="M222.43,32.61a3.26,3.26,0,0,1-2.72-1.17,5.59,5.59,0,0,1-.92-3.47,5.92,5.92,0,0,1,.92-3.59,3.21,3.21,0,0,1,2.72-1.22,2.7,2.7,0,0,1,1.66.48,1.88,1.88,0,0,1,.75,1.34h.71l-.54,2.6a3.48,3.48,0,0,0-.55-2.14,2.15,2.15,0,0,0-3.3.09,4.29,4.29,0,0,0-.57,2.44,4,4,0,0,0,.57,2.32,2.18,2.18,0,0,0,3.3.05A3.5,3.5,0,0,0,225,28.2l.62,2.59h-.79a1.83,1.83,0,0,1-.72,1.34A2.75,2.75,0,0,1,222.43,32.61Zm2.77-.08L225,30.74V19.55h1.83V32.44Z"/><path d="M232.1,32.61a3.23,3.23,0,0,1-2.21-.68,2.47,2.47,0,0,1-.78-1.95,2.56,2.56,0,0,1,1.07-2.21,5.15,5.15,0,0,1,3-.78,10.46,10.46,0,0,1,1.46.1,5.55,5.55,0,0,1,1.14.3l-.38,1.24a5.57,5.57,0,0,0-1.13-.15c-.36,0-.74,0-1.12,0-1.58,0-2.37.49-2.37,1.45a1.13,1.13,0,0,0,.4.93,1.88,1.88,0,0,0,1.16.32,3,3,0,0,0,1.42-.29,2.05,2.05,0,0,0,.86-.75,1.71,1.71,0,0,0,.28-.93v-1l.53,2.34h-.72l.29-.28a2.28,2.28,0,0,1-.36,1.32,2.17,2.17,0,0,1-1,.79A4.11,4.11,0,0,1,232.1,32.61Zm3.21-.08-.12-2.7-.24-.76V26.72a1.48,1.48,0,0,0-.64-1.34,3.65,3.65,0,0,0-1.9-.46l-2.19-.06.18-1.62,1.83,0a5.16,5.16,0,0,1,3.36,1,3.41,3.41,0,0,1,1.1,2.74v3.8l1.55.19v1.46Z"/><path d="M23.23,53.57V41.36H25V53.57Zm5.47,0-3.51-9.28H24.4V41.36h1.13L29,50.65h.43v2.92Zm.51,0V41.36H31V53.57Z"/><path d="M36.09,53.74a3.23,3.23,0,0,1-2.21-.69,2.43,2.43,0,0,1-.78-1.94,2.57,2.57,0,0,1,1.08-2.22,5.19,5.19,0,0,1,3-.77,9.13,9.13,0,0,1,1.46.1,5,5,0,0,1,1.14.29l-.38,1.24a7.5,7.5,0,0,0-1.12-.15l-1.13,0c-1.58,0-2.37.48-2.37,1.45a1.08,1.08,0,0,0,.41.92,1.77,1.77,0,0,0,1.15.33A3.15,3.15,0,0,0,37.8,52a2.13,2.13,0,0,0,.86-.75,1.74,1.74,0,0,0,.28-.94v-1l.54,2.33h-.73l.3-.27a2.11,2.11,0,0,1-1.4,2.11A4.32,4.32,0,0,1,36.09,53.74Zm3.21-.08L39.18,51l-.24-.76V47.84a1.48,1.48,0,0,0-.64-1.33,3.53,3.53,0,0,0-1.9-.46L34.22,46l.17-1.62,1.84,0a5.2,5.2,0,0,1,3.35,1,3.44,3.44,0,0,1,1.1,2.75v3.8l1.55.19v1.46Z"/><path d="M48.62,53.74A5,5,0,0,1,45,52.52,4.66,4.66,0,0,1,43.76,49,4.81,4.81,0,0,1,45,45.52a4.56,4.56,0,0,1,3.42-1.23,4.93,4.93,0,0,1,2.29.49A2.91,2.91,0,0,1,52,46.18l-1.4,1a2.87,2.87,0,0,0-1-1,2.87,2.87,0,0,0-3.32.44,3.79,3.79,0,0,0,.13,4.59,3.28,3.28,0,0,0,2.39.82c.42,0,.85,0,1.27-.06s.84-.1,1.24-.17l.21,1.6a8.7,8.7,0,0,1-1.46.21C49.59,53.72,49.1,53.74,48.62,53.74Z"/><path d="M54.28,53.57V52h3.65v1.6Zm.52-7.51v-1.6h4.78v1.6ZM58.6,43a1.22,1.22,0,0,1-.89-.37,1.23,1.23,0,0,1-.38-.9,1.28,1.28,0,0,1,1.27-1.27,1.23,1.23,0,0,1,.91.37,1.25,1.25,0,0,1,.37.9,1.26,1.26,0,0,1-.37.9A1.23,1.23,0,0,1,58.6,43Zm-.85,10.56V45h1.83v8.6Zm1.65,0V52h3v1.6Z"/><path d="M68.38,53.74a3.63,3.63,0,0,1-2.94-1.24,5.21,5.21,0,0,1-1-3.49,5.23,5.23,0,0,1,1-3.49,4.13,4.13,0,0,1,5.88,0A5.23,5.23,0,0,1,72.37,49a5.21,5.21,0,0,1-1.05,3.49A3.61,3.61,0,0,1,68.38,53.74Zm0-1.63a1.76,1.76,0,0,0,1.55-.81,5,5,0,0,0,0-4.58,1.9,1.9,0,0,0-3.1,0A4,4,0,0,0,66.28,49a4,4,0,0,0,.55,2.29A1.76,1.76,0,0,0,68.38,52.11Z"/><path d="M75,53.57V44.46h1.65l.17,1.92v7.19Zm5.61,0V47.64a1.77,1.77,0,0,0-.43-1.27A1.6,1.6,0,0,0,79,45.92c-1.43,0-2.15.84-2.15,2.53l-.53-2.34H77a1.8,1.8,0,0,1,.67-1.37,2.81,2.81,0,0,1,1.73-.45,2.87,2.87,0,0,1,2.24.87,3.57,3.57,0,0,1,.79,2.48v5.93Z"/><path d="M87.67,53.74a3.23,3.23,0,0,1-2.21-.69,2.43,2.43,0,0,1-.78-1.94,2.57,2.57,0,0,1,1.08-2.22,5.19,5.19,0,0,1,3-.77,9,9,0,0,1,1.46.1,5,5,0,0,1,1.14.29L91,49.75a7.5,7.5,0,0,0-1.12-.15l-1.13,0c-1.58,0-2.37.48-2.37,1.45a1.08,1.08,0,0,0,.41.92,1.77,1.77,0,0,0,1.15.33A3.15,3.15,0,0,0,89.38,52a2.13,2.13,0,0,0,.86-.75,1.74,1.74,0,0,0,.28-.94v-1l.54,2.33h-.72l.29-.27a2.21,2.21,0,0,1-.37,1.32,2.18,2.18,0,0,1-1,.79A4.32,4.32,0,0,1,87.67,53.74Zm3.21-.08L90.76,51l-.24-.76V47.84a1.48,1.48,0,0,0-.64-1.33,3.53,3.53,0,0,0-1.9-.46L85.8,46,86,44.37l1.84,0a5.2,5.2,0,0,1,3.35,1,3.41,3.41,0,0,1,1.1,2.75v3.8l1.55.19v1.46Z"/><path d="M95,42.27v-1.6h2.84v1.6Zm5.68,11.47a2.77,2.77,0,0,1-2.29-.86,4.32,4.32,0,0,1-.71-2.75V40.67h1.83V50a4.23,4.23,0,0,0,.13,1.18,1.11,1.11,0,0,0,.54.67,2.48,2.48,0,0,0,1.18.22,6.7,6.7,0,0,0,1.83-.33l.2,1.6a10.22,10.22,0,0,1-1.33.28A11.93,11.93,0,0,1,100.69,53.74Z"/><path d="M119.26,53.74a3.23,3.23,0,0,1-2.71-1.18,5.56,5.56,0,0,1-.92-3.46,5.92,5.92,0,0,1,.92-3.59,3.18,3.18,0,0,1,2.71-1.22,2.71,2.71,0,0,1,1.67.48,2,2,0,0,1,.75,1.34h.7l-.53,2.59a3.5,3.5,0,0,0-.55-2.14,2,2,0,0,0-1.63-.73,1.9,1.9,0,0,0-1.67.83,4.29,4.29,0,0,0-.57,2.44,3.9,3.9,0,0,0,.57,2.31,2.18,2.18,0,0,0,3.3.05,3.48,3.48,0,0,0,.55-2.14l.62,2.6h-.79a1.83,1.83,0,0,1-.73,1.34A2.73,2.73,0,0,1,119.26,53.74Zm2.78-.08-.19-1.79V40.67h1.82v12.9Z"/><path d="M131.07,53.74a5,5,0,0,1-3.6-1.22A4.66,4.66,0,0,1,126.2,49a5.14,5.14,0,0,1,1.08-3.48,3.79,3.79,0,0,1,3-1.23,3.67,3.67,0,0,1,2.86,1.11,4.72,4.72,0,0,1,1,3.25c0,.42,0,.81-.05,1.17h-6.4V48.43h4.8a2.76,2.76,0,0,0-.59-1.89,2,2,0,0,0-1.61-.66,2.17,2.17,0,0,0-1.8.8,3.43,3.43,0,0,0-.64,2.23,3.14,3.14,0,0,0,.88,2.41,3.5,3.5,0,0,0,2.5.82,10.37,10.37,0,0,0,1.12-.06,11.32,11.32,0,0,0,1.12-.18l.22,1.6a13,13,0,0,1-1.48.2C131.81,53.73,131.41,53.74,131.07,53.74Z"/><path d="M147.13,53.57V41.36h1.78V53.57Zm0-10.57V41.36h8.08V43Zm0,5.27V46.64h6.53v1.63Zm0,5.3V51.94h8.08v1.63Z"/><path d="M160.53,53.74a3.22,3.22,0,0,1-2.71-1.18,5.49,5.49,0,0,1-.93-3.46,5.85,5.85,0,0,1,.93-3.59,3.17,3.17,0,0,1,2.71-1.22,2.7,2.7,0,0,1,1.66.48,1.88,1.88,0,0,1,.75,1.34h.71l-.53,2.59a3.5,3.5,0,0,0-.56-2.14,1.93,1.93,0,0,0-1.63-.73,1.91,1.91,0,0,0-1.67.83,4.38,4.38,0,0,0-.56,2.44,4,4,0,0,0,.56,2.31,1.94,1.94,0,0,0,1.67.78,1.91,1.91,0,0,0,1.63-.73,3.48,3.48,0,0,0,.56-2.14l.61,2.6h-.79a1.82,1.82,0,0,1-.72,1.34A2.75,2.75,0,0,1,160.53,53.74Zm2.77-.08-.18-1.79V40.67h1.82v12.9Z"/><path d="M170.65,53.74a2.85,2.85,0,0,1-2.22-.85,3.42,3.42,0,0,1-.79-2.41v-6h1.82v6a1.56,1.56,0,0,0,.45,1.2,1.71,1.71,0,0,0,1.25.43,1.82,1.82,0,0,0,1.51-.63,3.42,3.42,0,0,0,.5-2.12l.47,2.46H173a2.46,2.46,0,0,1-.85,1.42A2.34,2.34,0,0,1,170.65,53.74ZM173.17,51V44.46H175v6Zm.16,2.67-.16-2.19v-1.6H175v2.05l1.25.19v1.46Z"/><path d="M182.73,53.74a5,5,0,0,1-3.59-1.22A4.66,4.66,0,0,1,177.87,49a4.81,4.81,0,0,1,1.2-3.48,4.56,4.56,0,0,1,3.42-1.23,4.93,4.93,0,0,1,2.29.49,2.91,2.91,0,0,1,1.35,1.4l-1.4,1a2.87,2.87,0,0,0-1-1,2.87,2.87,0,0,0-3.32.44,3.79,3.79,0,0,0,.13,4.59,3.3,3.3,0,0,0,2.39.82c.42,0,.85,0,1.27-.06s.84-.1,1.24-.17l.21,1.6a8.7,8.7,0,0,1-1.46.21C183.7,53.72,183.21,53.74,182.73,53.74Z"/><path d="M190.83,53.74a3.23,3.23,0,0,1-2.21-.69,2.43,2.43,0,0,1-.78-1.94,2.57,2.57,0,0,1,1.08-2.22,5.21,5.21,0,0,1,3.05-.77,9,9,0,0,1,1.45.1,5,5,0,0,1,1.14.29l-.38,1.24a7.33,7.33,0,0,0-1.12-.15l-1.13,0c-1.58,0-2.37.48-2.37,1.45A1.1,1.1,0,0,0,190,52a1.79,1.79,0,0,0,1.15.33,3.19,3.19,0,0,0,1.43-.29,2.17,2.17,0,0,0,.85-.75,1.75,1.75,0,0,0,.29-.94v-1l.53,2.33h-.72l.29-.27a2.12,2.12,0,0,1-1.39,2.11A4.37,4.37,0,0,1,190.83,53.74Zm3.22-.08-.12-2.7-.24-.76V47.84a1.5,1.5,0,0,0-.64-1.33,3.6,3.6,0,0,0-1.91-.46L189,46l.17-1.62,1.84,0a5.22,5.22,0,0,1,3.36,1,3.44,3.44,0,0,1,1.09,2.75v3.8l1.55.19v1.46Z"/><path d="M203.37,53.74a5,5,0,0,1-3.6-1.22A4.66,4.66,0,0,1,198.5,49a4.81,4.81,0,0,1,1.2-3.48,4.57,4.57,0,0,1,3.43-1.23,4.92,4.92,0,0,1,2.28.49,2.91,2.91,0,0,1,1.35,1.4l-1.4,1a2.87,2.87,0,0,0-1-1,2.87,2.87,0,0,0-3.32.44,3.79,3.79,0,0,0,.13,4.59,3.31,3.31,0,0,0,2.39.82c.43,0,.85,0,1.27-.06s.84-.1,1.24-.17l.21,1.6a8.7,8.7,0,0,1-1.46.21C204.33,53.72,203.84,53.74,203.37,53.74Z"/><path d="M209,53.57V52h3.65v1.6Zm.52-7.51v-1.6h4.78v1.6ZM213.35,43a1.26,1.26,0,0,1-1.27-1.27,1.21,1.21,0,0,1,.37-.9,1.28,1.28,0,0,1,1.8,0,1.21,1.21,0,0,1,.37.9A1.26,1.26,0,0,1,213.35,43Zm-.85,10.56V45h1.82v8.6Zm1.65,0V52h3v1.6Z"/><path d="M223.12,53.74a3.63,3.63,0,0,1-2.94-1.24A5.21,5.21,0,0,1,219.13,49a5.23,5.23,0,0,1,1.05-3.49,4.14,4.14,0,0,1,5.89,0,5.29,5.29,0,0,1,1,3.49,5.27,5.27,0,0,1-1,3.49A3.64,3.64,0,0,1,223.12,53.74Zm0-1.63a1.76,1.76,0,0,0,1.55-.81,4,4,0,0,0,.55-2.29,4,4,0,0,0-.55-2.29,1.9,1.9,0,0,0-3.1,0,5,5,0,0,0,0,4.58A1.76,1.76,0,0,0,223.12,52.11Zm-.87-9.27,1.47-3.27h1.82l-1.64,3.27Z"/><path d="M229.72,53.57V44.46h1.66l.17,1.92v7.19Zm5.61,0V47.64a1.73,1.73,0,0,0-.43-1.27,1.59,1.59,0,0,0-1.2-.45c-1.44,0-2.15.84-2.15,2.53L231,46.11h.71a1.8,1.8,0,0,1,.67-1.37,3.41,3.41,0,0,1,4,.42,3.57,3.57,0,0,1,.79,2.48v5.93Z"/><path d="M26.69,74.87a10.78,10.78,0,0,1-1.94-.17,7.92,7.92,0,0,1-1.69-.5l.23-1.74a11.29,11.29,0,0,0,1.83.62,7.27,7.27,0,0,0,1.71.21,3.09,3.09,0,0,0,1.79-.42,1.47,1.47,0,0,0,.58-1.28A1.68,1.68,0,0,0,28.09,70L26,69a5.18,5.18,0,0,1-1.91-1.36,3,3,0,0,1-.67-2,3.17,3.17,0,0,1,1-2.47,3.9,3.9,0,0,1,2.73-.88,6.15,6.15,0,0,1,2.18.36,5.71,5.71,0,0,1,1.82,1.18l-1.21,1.22a6.08,6.08,0,0,0-1.41-.9,3.43,3.43,0,0,0-1.37-.28,2,2,0,0,0-1.37.43,1.55,1.55,0,0,0-.49,1.25,1.45,1.45,0,0,0,.32,1,2.74,2.74,0,0,0,.94.67l1.78.84a6.22,6.22,0,0,1,2.07,1.44,3,3,0,0,1,.7,2A2.94,2.94,0,0,1,30,74,5.35,5.35,0,0,1,26.69,74.87Z"/><path d="M36.54,74.87A2.89,2.89,0,0,1,34.31,74a3.44,3.44,0,0,1-.78-2.41v-6h1.82v6a1.58,1.58,0,0,0,.45,1.21,1.74,1.74,0,0,0,1.25.43,1.8,1.8,0,0,0,1.51-.64,3.46,3.46,0,0,0,.5-2.11l.47,2.45h-.6a2.49,2.49,0,0,1-.85,1.43A2.39,2.39,0,0,1,36.54,74.87Zm2.52-2.75V65.58h1.83v6Zm.16,2.66-.16-2.18V71h1.83v2l1.25.19V74.7Z"/><path d="M44,78.65V65.58h1.65l.17,1.93V78.65Zm4.41-3.78a2.75,2.75,0,0,1-1.69-.48A1.82,1.82,0,0,1,46,73.05h-.79l.61-2.6a3.5,3.5,0,0,0,.56,2.14,1.91,1.91,0,0,0,1.63.73,1.94,1.94,0,0,0,1.67-.78,3.9,3.9,0,0,0,.56-2.31,4.3,4.3,0,0,0-.56-2.44,2.14,2.14,0,0,0-3.3-.1,3.5,3.5,0,0,0-.56,2.14l-.61-2.59h.7a1.94,1.94,0,0,1,.78-1.35,2.85,2.85,0,0,1,1.72-.48,3.2,3.2,0,0,1,2.72,1.22,6,6,0,0,1,.92,3.6,5.56,5.56,0,0,1-.92,3.46A3.22,3.22,0,0,1,48.44,74.87Z"/><path d="M58.85,74.87a4.93,4.93,0,0,1-3.59-1.23A4.64,4.64,0,0,1,54,70.12a5.16,5.16,0,0,1,1.07-3.47,3.83,3.83,0,0,1,3-1.24A3.69,3.69,0,0,1,61,66.53a4.72,4.72,0,0,1,1,3.25A10.63,10.63,0,0,1,61.91,71H55.52V69.56h4.8a2.76,2.76,0,0,0-.59-1.89A2.05,2.05,0,0,0,58.11,67a2.21,2.21,0,0,0-1.8.79A3.53,3.53,0,0,0,55.67,70a3.18,3.18,0,0,0,.88,2.41,3.55,3.55,0,0,0,2.51.82,10.37,10.37,0,0,0,1.12-.06L61.3,73l.22,1.6a13,13,0,0,1-1.48.2C59.59,74.86,59.2,74.87,58.85,74.87Z"/><path d="M63.91,74.7V73.1H70v1.6Zm.34-7.52v-1.6h3l.17,1.6Zm1.69,7.52V65.58h1.48l.34,2.62v6.5Zm1.82-3.92-.53-2.86h.7c.11-1.67.94-2.51,2.51-2.51a2.46,2.46,0,0,1,2,.81,4.28,4.28,0,0,1,.63,2.61h-1.8A2.6,2.6,0,0,0,71,67.4a1.07,1.07,0,0,0-1-.44,1.87,1.87,0,0,0-1.73,1A5.78,5.78,0,0,0,67.76,70.78Z"/><path d="M74.91,74.7V73.1h3.65v1.6Zm.52-7.52v-1.6h4.78v1.6Zm3.81-3A1.28,1.28,0,0,1,78,62.87a1.2,1.2,0,0,1,.38-.9,1.28,1.28,0,0,1,1.8,0,1.19,1.19,0,0,1,.37.9,1.26,1.26,0,0,1-1.27,1.27ZM78.39,74.7V66.1h1.82v8.6Zm1.65,0V73.1h3v1.6Z"/><path d="M89,74.87a3.63,3.63,0,0,1-2.94-1.24,6.33,6.33,0,0,1,0-7,4.12,4.12,0,0,1,5.89,0,6.38,6.38,0,0,1,0,7A3.64,3.64,0,0,1,89,74.87Zm0-1.63a1.76,1.76,0,0,0,1.55-.81,5,5,0,0,0,0-4.58,1.9,1.9,0,0,0-3.1,0,5,5,0,0,0,0,4.58A1.76,1.76,0,0,0,89,73.24Z"/><path d="M94.86,74.7V73.1h6.08v1.6Zm.34-7.52v-1.6h3l.18,1.6Zm1.69,7.52V65.58h1.47l.35,2.62v6.5Zm1.82-3.92-.53-2.86h.7c.1-1.67.94-2.51,2.51-2.51a2.46,2.46,0,0,1,2,.81,4.28,4.28,0,0,1,.63,2.61h-1.8a2.6,2.6,0,0,0-.3-1.43,1.09,1.09,0,0,0-1-.44,1.87,1.87,0,0,0-1.73,1A5.78,5.78,0,0,0,98.71,70.78Z"/></g></g></svg>