<svg xmlns="http://www.w3.org/2000/svg" viewBox="0 0 218.42 70.93"><defs><style>.cls-1{fill:none;}.cls-1,.cls-2{stroke:#000;stroke-miterlimit:10;}.cls-2{fill:#f8f3e9;}</style></defs><g id="Capa_2" data-name="Capa 2"><g id="Capa_1-2" data-name="Capa 1"><rect class="cls-1" x="5.33" y="5.33" width="207.77" height="60.28"/><rect class="cls-2" x="1.16" y="0.5" width="9.65" height="9.65"/><rect class="cls-2" x="208.27" y="0.5" width="9.65" height="9.65"/><rect class="cls-2" x="0.5" y="60.78" width="9.65" height="9.65"/><rect class="cls-2" x="208.27" y="60.78" width="9.65" height="9.65"/><path d="M22.64,21.87V20.23h8.94v1.64Zm3.58,10.57V20.23H28V32.44Z"/><path d="M38.22,32.61a5,5,0,0,1-3.6-1.22,4.69,4.69,0,0,1-1.26-3.52,5.09,5.09,0,0,1,1.07-3.47,3.8,3.8,0,0,1,3-1.24,3.62,3.62,0,0,1,2.85,1.12,4.64,4.64,0,0,1,1,3.25,10.67,10.67,0,0,1,0,1.16H34.89V27.3h4.79a2.76,2.76,0,0,0-.58-1.89,2.08,2.08,0,0,0-1.62-.65,2.18,2.18,0,0,0-1.8.79A3.44,3.44,0,0,0,35,27.78a3.13,3.13,0,0,0,.88,2.41,3.53,3.53,0,0,0,2.51.83A10.36,10.36,0,0,0,39.55,31q.54-.06,1.11-.18l.23,1.6a11.26,11.26,0,0,1-1.48.2C39,32.6,38.57,32.61,38.22,32.61Z"/><path d="M48.62,32.61A4.93,4.93,0,0,1,45,31.39a4.66,4.66,0,0,1-1.27-3.52A4.77,4.77,0,0,1,45,24.4a4.53,4.53,0,0,1,3.42-1.24,4.93,4.93,0,0,1,2.29.49A2.91,2.91,0,0,1,52,25.05l-1.4,1.06a2.7,2.7,0,0,0-1-1,2.61,2.61,0,0,0-1.32-.35,2.58,2.58,0,0,0-2,.78,3.19,3.19,0,0,0-.71,2.21,3.18,3.18,0,0,0,.84,2.38,3.24,3.24,0,0,0,2.39.82c.42,0,.85,0,1.27-.06s.84-.09,1.24-.16l.21,1.6a9.87,9.87,0,0,1-1.46.2C49.59,32.6,49.1,32.61,48.62,32.61Z"/><path d="M54.35,32.44V19.55h1.82V32.44Zm5.6,0V26.51a1.91,1.91,0,0,0-.43-1.34,1.53,1.53,0,0,0-1.2-.46c-1.43,0-2.15.87-2.15,2.61L55.64,25h.7A1.83,1.83,0,0,1,57,23.61,3.43,3.43,0,0,1,61,24a3.62,3.62,0,0,1,.79,2.48v5.93Z"/><path d="M74.91,32.44V20.23H76.7V32.44Zm0-10.57V20.23H83v1.64Zm0,5.28V25.51h6.54v1.64Zm0,5.29V30.81H83v1.63Z"/><path d="M88.31,32.61a3.25,3.25,0,0,1-2.71-1.17A5.59,5.59,0,0,1,84.68,28a5.92,5.92,0,0,1,.92-3.59,3.2,3.2,0,0,1,2.71-1.22,2.71,2.71,0,0,1,1.67.48A1.88,1.88,0,0,1,90.73,25h.71l-.54,2.6a3.48,3.48,0,0,0-.55-2.14,1.92,1.92,0,0,0-1.63-.73,1.9,1.9,0,0,0-1.67.82A4.29,4.29,0,0,0,86.48,28a3.9,3.9,0,0,0,.57,2.31,1.93,1.93,0,0,0,1.67.79,2,2,0,0,0,1.63-.73,3.5,3.5,0,0,0,.55-2.14l.62,2.59h-.79A1.83,1.83,0,0,1,90,32.13,2.73,2.73,0,0,1,88.31,32.61Zm2.78-.08-.19-1.79V19.55h1.82V32.44Z"/><path d="M98.43,32.61a2.88,2.88,0,0,1-2.22-.85,3.46,3.46,0,0,1-.78-2.41v-6h1.82v6a1.63,1.63,0,0,0,.44,1.21A1.78,1.78,0,0,0,99,31a1.8,1.8,0,0,0,1.5-.63,3.42,3.42,0,0,0,.51-2.12l.47,2.46h-.61a2.46,2.46,0,0,1-.84,1.43A2.42,2.42,0,0,1,98.43,32.61ZM101,29.86V23.33h1.82v6Zm.16,2.67L101,30.34V28.75h1.82v2L104,31v1.46Z"/><path d="M110.52,32.61a5,5,0,0,1-3.6-1.22,4.7,4.7,0,0,1-1.27-3.52,4.77,4.77,0,0,1,1.2-3.47,4.55,4.55,0,0,1,3.43-1.24,4.86,4.86,0,0,1,2.28.49,2.88,2.88,0,0,1,1.36,1.4l-1.41,1.06a2.66,2.66,0,0,0-2.3-1.32,2.56,2.56,0,0,0-2,.78,3.14,3.14,0,0,0-.72,2.21,3.18,3.18,0,0,0,.84,2.38,3.28,3.28,0,0,0,2.4.82c.42,0,.85,0,1.27-.06s.84-.09,1.24-.16l.2,1.6a9.74,9.74,0,0,1-1.45.2C111.48,32.6,111,32.61,110.52,32.61Z"/><path d="M118.62,32.61a3.23,3.23,0,0,1-2.21-.68,2.47,2.47,0,0,1-.78-1.95,2.55,2.55,0,0,1,1.08-2.21,5.12,5.12,0,0,1,3-.78,10.46,10.46,0,0,1,1.46.1,5.55,5.55,0,0,1,1.14.3L122,28.63a5.57,5.57,0,0,0-1.12-.15c-.37,0-.75,0-1.13,0-1.58,0-2.37.49-2.37,1.45a1.11,1.11,0,0,0,.41.93,1.83,1.83,0,0,0,1.15.32,3,3,0,0,0,1.42-.29,2,2,0,0,0,.86-.75,1.71,1.71,0,0,0,.28-.93v-1l.54,2.34h-.73l.3-.28a2.28,2.28,0,0,1-.37,1.32,2.12,2.12,0,0,1-1,.79A4.11,4.11,0,0,1,118.62,32.61Zm3.21-.08-.12-2.7-.24-.76V26.72a1.48,1.48,0,0,0-.64-1.34,3.63,3.63,0,0,0-1.9-.46l-2.18-.06.17-1.62,1.84,0a5.15,5.15,0,0,1,3.35,1,3.41,3.41,0,0,1,1.1,2.74v3.8l1.55.19v1.46Z"/><path d="M125.72,24.93v-1.6H134v1.6ZM128,28.14V20.58h1.82v7.56Zm3.92,4.47a4.3,4.3,0,0,1-3-.86A3.58,3.58,0,0,1,128,29V27.46h1.82v1.46a2.07,2.07,0,0,0,.53,1.57,2.5,2.5,0,0,0,1.74.49,7.23,7.23,0,0,0,.91-.05l1.1-.12.21,1.6c-.4.07-.8.12-1.18.15A11.63,11.63,0,0,1,131.93,32.61Z"/><path d="M136.81,32.44v-1.6h3.65v1.6Zm.52-7.51v-1.6h4.78v1.6Zm3.8-3a1.21,1.21,0,0,1-.89-.38,1.26,1.26,0,0,1,0-1.8,1.2,1.2,0,0,1,.89-.37,1.23,1.23,0,0,1,.91.37,1.28,1.28,0,0,1,0,1.8A1.24,1.24,0,0,1,141.13,21.89Zm-.85,10.55V23.85h1.83v8.59Zm1.65,0v-1.6h3v1.6Z"/><path d="M150.91,32.61A3.66,3.66,0,0,1,148,31.38a5.25,5.25,0,0,1-1.05-3.49,5.24,5.24,0,0,1,1.05-3.5,4.13,4.13,0,0,1,5.88,0,5.24,5.24,0,0,1,1.05,3.5,5.25,5.25,0,0,1-1.05,3.49A3.63,3.63,0,0,1,150.91,32.61Zm0-1.63a1.76,1.76,0,0,0,1.55-.81,4.08,4.08,0,0,0,.55-2.28,4.05,4.05,0,0,0-.55-2.29,1.89,1.89,0,0,0-3.1,0,4,4,0,0,0-.55,2.29,4,4,0,0,0,.55,2.28A1.76,1.76,0,0,0,150.91,31Z"/><path d="M157.51,32.44V23.33h1.65l.17,1.93v7.18Zm5.61,0V26.51a1.79,1.79,0,0,0-.43-1.27,1.6,1.6,0,0,0-1.21-.45c-1.43,0-2.15.84-2.15,2.53L158.8,25h.71a1.8,1.8,0,0,1,.67-1.37,2.81,2.81,0,0,1,1.73-.45,2.87,2.87,0,0,1,2.24.87,3.57,3.57,0,0,1,.79,2.48v5.93Z"/><path d="M28.39,53.74c-3.8,0-5.69-2.1-5.69-6.29a6.76,6.76,0,0,1,1.43-4.62,5.12,5.12,0,0,1,4.05-1.64,5.5,5.5,0,0,1,2.2.4,2.8,2.8,0,0,1,1.37,1.14L30.48,44a2.67,2.67,0,0,0-1-.9,2.74,2.74,0,0,0-1.29-.32A3.27,3.27,0,0,0,25.54,44a5.12,5.12,0,0,0-1,3.39q0,4.8,4.14,4.8a6.14,6.14,0,0,0,2.46-.52l.39,1.52A8.5,8.5,0,0,1,28.39,53.74Z"/><path d="M37.43,53.74a3.63,3.63,0,0,1-2.94-1.24A5.21,5.21,0,0,1,33.44,49a5.23,5.23,0,0,1,1.05-3.49,3.66,3.66,0,0,1,2.94-1.23,3.66,3.66,0,0,1,3,1.23,5.29,5.29,0,0,1,1,3.49,5.27,5.27,0,0,1-1,3.49A3.64,3.64,0,0,1,37.43,53.74Zm0-1.63A1.76,1.76,0,0,0,39,51.3,4,4,0,0,0,39.53,49,4,4,0,0,0,39,46.72a1.9,1.9,0,0,0-3.1,0A4,4,0,0,0,35.33,49a4,4,0,0,0,.55,2.29A1.76,1.76,0,0,0,37.43,52.11Z"/><path d="M43.43,42.27v-1.6h2.84v1.6ZM49.1,53.74a2.76,2.76,0,0,1-2.28-.86,4.32,4.32,0,0,1-.71-2.75V40.67h1.83v9.38a4.2,4.2,0,0,0,.13,1.17,1,1,0,0,0,.54.67,2.48,2.48,0,0,0,1.18.22,6.7,6.7,0,0,0,1.83-.33l.2,1.6a10,10,0,0,1-1.34.28A11.67,11.67,0,0,1,49.1,53.74Z"/><path d="M58.06,53.74a3.63,3.63,0,0,1-2.94-1.24,5.21,5.21,0,0,1-1-3.49,5.23,5.23,0,0,1,1-3.49,4.14,4.14,0,0,1,5.89,0,5.29,5.29,0,0,1,1,3.49,5.27,5.27,0,0,1-1,3.49A3.64,3.64,0,0,1,58.06,53.74Zm0-1.63a1.76,1.76,0,0,0,1.55-.81A4,4,0,0,0,60.16,49a4,4,0,0,0-.55-2.29,1.9,1.9,0,0,0-3.1,0,5.13,5.13,0,0,0,0,4.58A1.77,1.77,0,0,0,58.06,52.11Z"/><path d="M64.18,53.57V44.46H65.8L66,46.38v7.19Zm3.42,0V46.43c0-.51-.24-.77-.72-.77S66,46.07,66,46.9l-.54-1.31h.59c.07-.87.59-1.3,1.56-1.3a1.36,1.36,0,0,1,1.12.49,2.22,2.22,0,0,1,.41,1.48v7.31Zm3.15,0v-7c0-.63-.23-1-.7-1s-.9.41-.9,1.24l-.62-1.31h.71a1.48,1.48,0,0,1,.42-.92,1.5,1.5,0,0,1,1.11-.38,1.68,1.68,0,0,1,1.37.5,2.52,2.52,0,0,1,.43,1.64v7.14Z"/><path d="M74.94,53.57V40.67h1.82V53.42Zm2.44.17c-.41,0-.82,0-1.22-.05l-1.22-.12.7-1.67a2.79,2.79,0,0,0,1,.26l1.09,0a3.28,3.28,0,0,0,2.54-1,4,4,0,0,0,.9-2.8,2.94,2.94,0,0,0-.55-1.91,1.9,1.9,0,0,0-1.55-.67c-1.55,0-2.32.87-2.32,2.62l-.53-2.34h.7c.09-1.22.83-1.82,2.24-1.82A3.66,3.66,0,0,1,82,45.36a4.34,4.34,0,0,1,1,3,5.15,5.15,0,0,1-1.46,3.93A5.74,5.74,0,0,1,77.38,53.74Z"/><path d="M85.23,53.57V52h3.64v1.6Zm.51-7.51v-1.6h4.78v1.6ZM89.55,43a1.22,1.22,0,0,1-.9-.37,1.26,1.26,0,0,1-.37-.9,1.25,1.25,0,0,1,.37-.9,1.29,1.29,0,0,1,1.81,0,1.25,1.25,0,0,1,.37.9,1.26,1.26,0,0,1-.37.9A1.23,1.23,0,0,1,89.55,43ZM88.7,53.57V45h1.82v8.6Zm1.65,0V52h3v1.6Z"/><path d="M98,53.74a3.23,3.23,0,0,1-2.21-.69A2.44,2.44,0,0,1,95,51.11a2.57,2.57,0,0,1,1.08-2.22,5.23,5.23,0,0,1,3.05-.77,9.13,9.13,0,0,1,1.46.1,5,5,0,0,1,1.14.29l-.38,1.24a7.46,7.46,0,0,0-1.13-.15l-1.12,0c-1.58,0-2.38.48-2.38,1.45a1.1,1.1,0,0,0,.41.92,1.8,1.8,0,0,0,1.16.33A3.15,3.15,0,0,0,99.7,52a2.2,2.2,0,0,0,.86-.75,1.74,1.74,0,0,0,.28-.94v-1l.53,2.33h-.72l.29-.27a2.28,2.28,0,0,1-.36,1.32,2.23,2.23,0,0,1-1,.79A4.32,4.32,0,0,1,98,53.74Zm3.21-.08-.12-2.7-.24-.76V47.84a1.48,1.48,0,0,0-.64-1.33,3.56,3.56,0,0,0-1.9-.46L96.11,46l.17-1.62,1.84,0a5.22,5.22,0,0,1,3.36,1,3.44,3.44,0,0,1,1.1,2.75v3.8l1.54.19v1.46Z"/></g></g></svg>