<svg xmlns="http://www.w3.org/2000/svg" viewBox="0 0 218.42 54.48"><defs><style>.cls-1{fill:none;}.cls-1,.cls-2{stroke:#000;stroke-miterlimit:10;}.cls-2{fill:#f8f3e9;}</style></defs><g id="Capa_2" data-name="Capa 2"><g id="Capa_1-2" data-name="Capa 1"><rect class="cls-1" x="5.33" y="5.33" width="207.77" height="43.83"/><rect class="cls-2" x="1.16" y="0.5" width="9.65" height="9.65"/><rect class="cls-2" x="208.27" y="0.5" width="9.65" height="9.65"/><rect class="cls-2" x="0.5" y="44.33" width="9.65" height="9.65"/><rect class="cls-2" x="208.27" y="44.33" width="9.65" height="9.65"/><path d="M22.64,21.87V20.24h8.94v1.63Zm3.58,10.57V20.24H28v12.2Z"/><path d="M33,32.44v-1.6h6.09v1.6Zm.34-7.51v-1.6h3.05l.17,1.6ZM35,32.44V23.33h1.48l.34,2.61v6.5Zm1.82-3.92-.53-2.85H37c.11-1.68.94-2.51,2.51-2.51a2.45,2.45,0,0,1,2,.81,4.27,4.27,0,0,1,.64,2.61H40.37a2.64,2.64,0,0,0-.3-1.44,1.05,1.05,0,0,0-1-.43,1.88,1.88,0,0,0-1.74,1A5.71,5.71,0,0,0,36.81,28.52Z"/><path d="M46.41,32.61a3.21,3.21,0,0,1-2.21-.68A2.44,2.44,0,0,1,43.41,30a2.55,2.55,0,0,1,1.08-2.21,5.15,5.15,0,0,1,3-.78,10.58,10.58,0,0,1,1.46.1,5.91,5.91,0,0,1,1.14.3l-.38,1.24a5.66,5.66,0,0,0-1.13-.15c-.37,0-.74,0-1.12,0-1.59,0-2.38.49-2.38,1.45a1.14,1.14,0,0,0,.41.93,1.86,1.86,0,0,0,1.16.32,3,3,0,0,0,1.42-.29,2.05,2.05,0,0,0,.86-.75,1.71,1.71,0,0,0,.28-.93v-1l.53,2.34h-.72l.29-.28A2.28,2.28,0,0,1,49,31.56a2.22,2.22,0,0,1-1,.79A4.11,4.11,0,0,1,46.41,32.61Zm3.21-.08-.12-2.7-.24-.76V26.72a1.48,1.48,0,0,0-.64-1.34,3.65,3.65,0,0,0-1.9-.46l-2.19-.06.17-1.62,1.84,0a5.16,5.16,0,0,1,3.36,1A3.41,3.41,0,0,1,51,27v3.8l1.54.19v1.46Z"/><path d="M54.35,32.44V23.33H56l.17,1.93v7.18Zm5.6,0V26.51a1.75,1.75,0,0,0-.43-1.27,1.56,1.56,0,0,0-1.2-.45c-1.43,0-2.15.84-2.15,2.53L55.64,25h.7A1.83,1.83,0,0,1,57,23.61,3.43,3.43,0,0,1,61,24a3.62,3.62,0,0,1,.79,2.48v5.93Z"/><path d="M67.67,32.61c-.68,0-1.27,0-1.76-.06a10.21,10.21,0,0,1-1.35-.19l.21-1.65c.6.09,1.13.16,1.59.2a12.14,12.14,0,0,0,1.31.07,5.4,5.4,0,0,0,2-.27.89.89,0,0,0,.62-.86.83.83,0,0,0-.21-.62,1.6,1.6,0,0,0-.68-.31l-2.1-.53a5.27,5.27,0,0,1-2-.86A1.85,1.85,0,0,1,64.7,26a2.31,2.31,0,0,1,1.15-2.16,7.62,7.62,0,0,1,3.7-.67c.44,0,.85,0,1.23,0s.77.07,1.18.13l-.19,1.58c-.47,0-.88-.08-1.23-.09l-1,0a6.93,6.93,0,0,0-2.22.26.91.91,0,0,0-.69.86.62.62,0,0,0,.28.57,2.91,2.91,0,0,0,.87.32l1.69.42a5,5,0,0,1,2.1.92,2.1,2.1,0,0,1,.67,1.67A2.33,2.33,0,0,1,71.12,32,6.84,6.84,0,0,1,67.67,32.61Z"/><path d="M74.5,32.44V23.33h1.62l.2,1.93v7.18Zm3.42,0V25.31q0-.78-.72-.78c-.59,0-.88.42-.88,1.24l-.53-1.31h.58c.07-.87.59-1.3,1.57-1.3a1.37,1.37,0,0,1,1.12.49,2.28,2.28,0,0,1,.41,1.49v7.3Zm3.15,0v-7c0-.63-.24-.95-.71-.95s-.89.42-.89,1.24l-.62-1.31h.7a1.49,1.49,0,0,1,.43-.92,1.52,1.52,0,0,1,1.11-.38,1.7,1.7,0,0,1,1.37.51,2.48,2.48,0,0,1,.43,1.64v7.13Z"/><path d="M85.23,32.44v-1.6h3.64v1.6Zm.51-7.51v-1.6h4.78v1.6Zm3.81-3a1.23,1.23,0,0,1-.9-.38,1.28,1.28,0,0,1,0-1.8,1.29,1.29,0,0,1,1.81,0,1.28,1.28,0,0,1,0,1.8A1.24,1.24,0,0,1,89.55,21.89ZM88.7,32.44V23.85h1.82v8.59Zm1.65,0v-1.6h3v1.6Z"/><path d="M95,21.15v-1.6h2.84v1.6Zm5.68,11.46a2.77,2.77,0,0,1-2.29-.86A4.32,4.32,0,0,1,97.69,29V19.55h1.83v9.37a4.32,4.32,0,0,0,.13,1.18,1.17,1.17,0,0,0,.54.67,2.62,2.62,0,0,0,1.18.21,6.7,6.7,0,0,0,1.83-.33l.2,1.6a10.22,10.22,0,0,1-1.33.28A10.05,10.05,0,0,1,100.69,32.61Z"/><path d="M110.43,32.61a4.93,4.93,0,0,1-3.59-1.22,4.66,4.66,0,0,1-1.27-3.52,5.14,5.14,0,0,1,1.07-3.47,3.8,3.8,0,0,1,3-1.24,3.66,3.66,0,0,1,2.86,1.12,4.69,4.69,0,0,1,1,3.25c0,.41,0,.8,0,1.16h-6.4V27.3h4.8a2.76,2.76,0,0,0-.59-1.89,2.07,2.07,0,0,0-1.61-.65,2.19,2.19,0,0,0-1.81.79,3.5,3.5,0,0,0-.64,2.23,3.16,3.16,0,0,0,.88,2.41,3.55,3.55,0,0,0,2.51.83,10.36,10.36,0,0,0,1.12-.07,11.32,11.32,0,0,0,1.12-.18l.22,1.6a11,11,0,0,1-1.48.2C111.17,32.6,110.78,32.61,110.43,32.61Z"/><path d="M116.25,32.44V23.33h1.65l.17,1.93v7.18Zm5.6,0V26.51a1.75,1.75,0,0,0-.43-1.27,1.59,1.59,0,0,0-1.2-.45c-1.43,0-2.15.84-2.15,2.53L117.54,25h.7a1.83,1.83,0,0,1,.67-1.37,3.41,3.41,0,0,1,4,.42,3.57,3.57,0,0,1,.79,2.48v5.93Z"/><path d="M126.49,32.44v-1.6h3.65v1.6Zm.52-7.51v-1.6h4.78v1.6Zm3.81-3a1.28,1.28,0,1,1,.9-.38A1.23,1.23,0,0,1,130.82,21.89ZM130,32.44V23.85h1.82v8.59Zm1.65,0v-1.6h3v1.6Z"/><path d="M140.59,32.61a3.66,3.66,0,0,1-2.94-1.23,5.25,5.25,0,0,1-1.05-3.49,5.24,5.24,0,0,1,1.05-3.5,4.14,4.14,0,0,1,5.89,0,5.3,5.3,0,0,1,1,3.5,5.3,5.3,0,0,1-1,3.49A3.66,3.66,0,0,1,140.59,32.61Zm0-1.63a1.76,1.76,0,0,0,1.55-.81,4,4,0,0,0,.55-2.28,4,4,0,0,0-.55-2.29,1.89,1.89,0,0,0-3.1,0,4.06,4.06,0,0,0-.54,2.29,4.09,4.09,0,0,0,.54,2.28A1.77,1.77,0,0,0,140.59,31Z"/><path d="M160.8,32.61a10.8,10.8,0,0,1-1.94-.16,7.16,7.16,0,0,1-1.68-.51l.22-1.73a11.22,11.22,0,0,0,1.83.61,7.27,7.27,0,0,0,1.71.21,3.09,3.09,0,0,0,1.79-.42,1.47,1.47,0,0,0,.58-1.28,1.68,1.68,0,0,0-1.11-1.6l-2.12-1a5.31,5.31,0,0,1-1.91-1.37,3,3,0,0,1-.67-2,3.15,3.15,0,0,1,1-2.48,3.92,3.92,0,0,1,2.72-.88,6.15,6.15,0,0,1,2.18.36,5.77,5.77,0,0,1,1.82,1.18L164,22.82a6.08,6.08,0,0,0-1.41-.9,3.57,3.57,0,0,0-1.37-.28,2,2,0,0,0-1.37.43,1.56,1.56,0,0,0-.49,1.26,1.45,1.45,0,0,0,.32,1,2.6,2.6,0,0,0,.94.66l1.78.85a6.21,6.21,0,0,1,2.07,1.43,3,3,0,0,1,.7,2.06,2.93,2.93,0,0,1-1.08,2.48A5.27,5.27,0,0,1,160.8,32.61Z"/><path d="M171.54,32.61a1.27,1.27,0,1,1,0-2.54,1.19,1.19,0,0,1,.9.37,1.28,1.28,0,0,1,0,1.8A1.19,1.19,0,0,1,171.54,32.61Z"/><path d="M177.09,32.44l3.52-12.2h2.49l3.53,12.2h-1.81l-2.89-10.73h-.15l-2.89,10.73Zm1.63-3V27.83h6.19v1.64Z"/><path d="M192.17,32.61a1.22,1.22,0,0,1-.9-.37,1.28,1.28,0,0,1,0-1.8,1.29,1.29,0,0,1,1.81,0,1.28,1.28,0,0,1,0,1.8A1.23,1.23,0,0,1,192.17,32.61Z"/></g></g></svg>