<svg xmlns="http://www.w3.org/2000/svg" viewBox="0 0 18.61 15.08"><defs><style>.cls-1{fill:#f8f3e9;}</style></defs><g id="Capa_2" data-name="Capa 2"><g id="Capa_1-2" data-name="Capa 1"><polygon class="cls-1" points="17.97 0.24 17.97 0.24 17.97 0.24 17.97 0.24"/><path class="cls-1" d="M17.24,2.14a2.43,2.43,0,0,1-.72.09V2.15A5.93,5.93,0,0,0,18,.5a.31.31,0,0,0,0-.26L16.76.75l-1,.46h0A4,4,0,0,0,12.81,0,3.6,3.6,0,0,0,9,3.33a4.78,4.78,0,0,0,.16,1.26h0A11.79,11.79,0,0,1,4.51,3.21C1.45,1.66,1.26.59,1.26.59A4.19,4.19,0,0,0,1,4.11,4.36,4.36,0,0,0,2.4,5.72h0a3.21,3.21,0,0,1-1-.16,2.15,2.15,0,0,1-.69-.34c-.3.73.3,2,1.34,3a5.37,5.37,0,0,0,1.7.89l-1.72,0c-.1,1.67,3.5,2.66,3.5,2.66h0A5.88,5.88,0,0,1,2,13.07a7,7,0,0,1-2-.28,9.36,9.36,0,0,0,6.38,2.28c6.43-.34,10.06-5.86,10.23-11.28h0a4.43,4.43,0,0,0,.94-.8,6.5,6.5,0,0,0,1.05-1.39S17.64,2,17.24,2.14Z"/><path class="cls-1" d="M18,.24Z"/></g></g></svg>