<svg xmlns="http://www.w3.org/2000/svg" viewBox="0 0 48.1 38.99"><defs><style>.cls-1{fill:#98bae7;}</style></defs><g id="Capa_2" data-name="Capa 2"><g id="Capa_1-2" data-name="Capa 1"><polygon class="cls-1" points="46.46 0.62 46.46 0.62 46.46 0.62 46.46 0.62"/><path class="cls-1" d="M44.57,5.52a6.29,6.29,0,0,1-1.87.24l0-.19c1-.78,3.42-3.17,3.74-4.28.14-.49,0-.65,0-.67L43.33,2,40.71,3.13h0A10.47,10.47,0,0,0,33.11,0c-5.45,0-9.86,3.86-9.86,8.61a12.92,12.92,0,0,0,.4,3.25c0,.25,0-.25,0,0-3.51-.09-8-1.53-12-3.56-7.89-4-8.39-6.76-8.39-6.76C2,2.85,1.38,7.21,2.64,10.63c.8,2.19,3.57,4.15,3.57,4.15h0a8.38,8.38,0,0,1-2.53-.42,5.43,5.43,0,0,1-1.79-.87c-.77,1.88.78,5.24,3.45,7.64a14.12,14.12,0,0,0,4.4,2.29l-4.44.12c-.25,4.32,9.05,6.88,9.05,6.88h0A15.2,15.2,0,0,1,5.07,33.8,17.72,17.72,0,0,1,0,33.05,24.18,24.18,0,0,0,16.5,39c16.62-.88,26-15.16,26.44-29.18l0,0A11.61,11.61,0,0,0,45.4,7.76a16.86,16.86,0,0,0,2.7-3.61S45.61,5.23,44.57,5.52Z"/><path class="cls-1" d="M46.46.62c0,.27,0,0,0,0Z"/></g></g></svg>